<?xml version="1.0" encoding="iso-8859-1"?>
<!-- Generator: Adobe Illustrator 17.1.0, SVG Export Plug-In . SVG Version: 6.00 Build 0)  -->
<!DOCTYPE svg PUBLIC "-//W3C//DTD SVG 1.1//EN" "http://www.w3.org/Graphics/SVG/1.1/DTD/svg11.dtd">
<svg version="1.1" id="Capa_1" xmlns="http://www.w3.org/2000/svg" xmlns:xlink="http://www.w3.org/1999/xlink" x="0px" y="0px" viewBox="0 0 437.951 437.951" style="enable-background:new 0 0 437.951 437.951;" xml:space="preserve">
    <path d="M204.94,324.059v21.241c0,4.971-4.029,9-9,9s-9-4.029-9-9v-21.241c0-4.971,4.029-9,9-9
	S204.94,319.088,204.94,324.059z M195.94,186.534c-4.971,0-9,4.029-9,9v21.24c0,4.971,4.029,9,9,9s9-4.029,9-9v-21.24
	C204.94,190.563,200.911,186.534,195.94,186.534z M195.94,250.797c-4.971,0-9,4.029-9,9v21.24c0,4.971,4.029,9,9,9s9-4.029,9-9
	v-21.24C204.94,254.827,200.911,250.797,195.94,250.797z M242.012,225.774c4.971,0,9-4.029,9-9v-21.24c0-4.971-4.029-9-9-9
	s-9,4.029-9,9v21.24C233.012,221.745,237.041,225.774,242.012,225.774z M242.012,354.299c4.971,0,9-4.029,9-9v-21.241
	c0-4.971-4.029-9-9-9s-9,4.029-9,9v21.241C233.012,350.27,237.041,354.299,242.012,354.299z M409.172,428.95c0,4.971-4.029,9-9,9
	h-56.3c-0.045,0-0.09,0.001-0.135,0.001s-0.09,0-0.135-0.001h-56.124c-0.09,0.001-0.18,0.001-0.27,0H150.741
	c-0.09,0.001-0.18,0.001-0.27,0H94.349c-0.09,0.001-0.18,0.001-0.27,0H37.779c-4.971,0-9-4.029-9-9s4.029-9,9-9h47.436V194.289
	c0-3.272,1.775-6.286,4.637-7.872c2.861-1.586,6.359-1.494,9.133,0.24l42.622,26.639V64.635c0-3.504,2.034-6.689,5.212-8.164
	c3.176-1.476,6.923-0.971,9.6,1.292l52.878,44.722l69.046-43.156V9c0-4.971,4.029-9,9-9s9,4.029,9,9v55.131
	c0.001,0.062,0.002,0.123,0.002,0.185V189.3l52.163,32.602c2.631,1.645,4.23,4.529,4.23,7.632V419.95h47.435
	C405.143,419.95,409.172,423.979,409.172,428.95z M141.606,234.522l-38.392-23.996V419.95h38.392V234.522z M159.606,133.542
	l33.662-21.039l-33.662-28.469V133.542z M278.345,80.554l-64.916,40.574c-0.106,0.07-0.215,0.138-0.324,0.203l-53.499,33.438v74.63
	c0.001,0.096,0.001,0.192,0,0.288V419.95h118.738V194.425c-0.001-0.097-0.001-0.194,0-0.291V80.554z M334.738,234.522
	l-38.393-23.996V419.95h38.393V234.522z M242.012,290.037c4.971,0,9-4.029,9-9v-21.24c0-4.971-4.029-9-9-9s-9,4.029-9,9v21.24
	C233.012,286.008,237.041,290.037,242.012,290.037z" />
</svg>